<svg data-v-0dd9719b="" version="1.0" xmlns="http://www.w3.org/2000/svg" xmlns:xlink="http://www.w3.org/1999/xlink" width="100%" height="100%" viewBox="0 0 340.000000 250.000000" preserveAspectRatio="xMidYMid meet" color-interpolation-filters="sRGB" style="margin: auto;"> <rect data-v-0dd9719b="" x="0" y="0" width="100%" height="100%" fill="#fff" fill-opacity="1" class="background"></rect> <rect data-v-0dd9719b="" x="0" y="0" width="100%" height="100%" fill="url(#watermark)" fill-opacity="1" class="watermarklayer"></rect> <g data-v-0dd9719b="" fill="#333" class="icon-text-wrapper icon-svg-group iconsvg" transform="translate(48.084999084472656,94.95583534240723)"><g class="iconsvg-imagesvg" transform="translate(0,0)"><g><rect fill="#333" fill-opacity="0" stroke-width="2" x="0" y="0" width="60" height="60.08832984487196" class="image-rect"></rect> <svg x="0" y="0" width="60" height="60.08832984487196" filtersec="colorsb340159555" class="image-svg-svg primary" style="overflow: visible;"><svg xmlns="http://www.w3.org/2000/svg" viewBox="-0.001293182373046875 0.002758026123046875 99.85157775878906 99.99821472167969"><g fill-rule="evenodd"><path d="M46.48 18.63l1.23-.71.62-.35.49-.27C81.4-.63 110.38 7.82 87.5 44.17c-.64 1-1.33 2.08-2.06 3.15-.86-1.47-1.76-2.94-2.73-4.41l-.34-.68q1-1.53 1.86-2.91c12.24-21-17.45-17.65-50.13 3.41l-1-2a29.42 29.42 0 0 1-1.46-3.48c-.79-2.27-1.44-4.44-1.93-6.47a112.67 112.67 0 0 1 12.8-9.7l1.49-.94.62-.38c.62-.39 1.23-.76 1.85-1.12zM18.59 53.76a109.86 109.86 0 0 0 12.85 17.76 47.53 47.53 0 0 0 8.69-3.3l2.92-1.46a141.32 141.32 0 0 1-13.54-26.32 74.21 74.21 0 0 1-3.22-10.75C23.38 15.68 28 8.86 41.72 17.92q2.53-1.61 5.11-3.05C10.23-9.6.2 16.24 15.34 47.61q1.47 3.05 3.25 6.15zm51.86 16.73c-.32-1.29-.71-2.69-1.19-4.23a48.42 48.42 0 0 0-2.76-6.82l-.45-.89c-34.1 22-64.95 24.71-48.27.51a94.943 94.943 0 0 1-3.12-5c-25.42 37.37.92 47.55 32.69 32a98.59 98.59 0 0 0 11.13-6.41 111 111 0 0 0 11.97-9.16zm11.11-23a110.89 110.89 0 0 0-12.84-17.74q-2.58.7-5.51 1.72l-6.1 3A141.2 141.2 0 0 1 70.7 61c.07.19.14.37.2.56s.19.49.27.73.2.56.29.83c.34 1 .65 1.91.93 2.83.06.18.11.36.16.54l.14.47c.06.22.13.44.19.65.05.17.1.34.14.51.33 1.21.61 2.37.84 3.49 2.91 14-1.73 20.8-15.42 11.75l-5.11 3C89.93 110.87 100 85 84.82 53.67q-1.47-3.04-3.26-6.14z" fill="#15355c"></path><path d="M49 13.47l-.48.27c-1.19-.79-2.35-1.53-3.48-2.21.61-.38 1.22-.75 1.83-1.1l1.23-.7.62-.36.49-.27C75.2-5.2 98.87-2.75 95.86 17.22 94.9 1.36 72.93.31 49 13.47zM10 53.22c.65 1.12 1.33 2.24 2 3.37.67-1.07 1.38-2.16 2.14-3.28q-1.74-3-3.18-6C.34 25.12 2.21 5.71 17.15 4.88-1.61 2.1-4.85 23 6.79 47.07q1.47 3.05 3.26 6.15zm37 36.6c-20.31 9.93-38.39 9.36-42.17-2.1 1.39 14.46 20.81 16.06 42.85 5.28 2.33-1.14 4.68-2.41 7.06-3.83q-1.43-.87-2.91-1.86-2.41 1.34-4.83 2.51zM93 54.1q-1.47-3-3.26-6.14l-1-1.67-.11.17c-.63 1-1.31 2-2 3.08.8 1.46 1.55 2.92 2.25 4.36 10.71 22.19 8.82 41.62-6.17 42.41C101.47 99 104.69 78.19 93.06 54.1z" fill="#009ed6"></path></g></svg></svg> <!----></g></g> <g transform="translate(67,6.242914199829102)"><g data-gra="path-name" fill-rule="" class="tp-name iconsvg-namesvg" transform="translate(0,0)"><g transform="scale(1)"><g><path d="M2.99-25.81L34.34-25.81 34.34-24.01Q34.34-23.8 34.18-23.63 34.02-23.47 33.8-23.47L33.8-23.47 17.96-23.47Q16.81-18.79 13.21-14.36L13.21-14.36 32-14.36 32-0.9Q32 2.88 28.22 2.88L28.22 2.88 8.64 2.88 8.64-9.68Q6.8-8.14 4.99-6.98 3.17-5.83 1.66-5.18L1.66-5.18 1.66-7.52Q6.16-10.84 9.34-14.87 12.53-18.9 13.9-23.47L13.9-23.47 2.99-23.47 2.99-25.81ZM26.78 0.54Q28.04 0.54 28.04-0.72L28.04-0.72 28.04-12.02 12.6-12.02 12.6 0.54 26.78 0.54ZM42.84-18.68Q42.84-18.47 42.68-18.31 42.52-18.14 42.3-18.14L42.3-18.14 38.88-18.14 38.88-25.16 52.96-25.16Q51.8-27.04 50.04-28.98L50.04-28.98 54.36-28.98Q55.55-27.47 56.56-25.16L56.56-25.16 69.48-25.16 69.48-18.68Q69.48-18.47 69.32-18.31 69.16-18.14 68.94-18.14L68.94-18.14 65.52-18.14 65.52-22.82 42.84-22.82 42.84-18.68ZM61.52-10.51Q62.46-7.96 65.12-5.15 67.79-2.34 70.34-0.72L70.34-0.72 70.34 1.62Q66.64 0.07 63.54-2.34 60.44-4.75 58.32-8.89L58.32-8.89 57.49-8.53Q57.56-7.81 57.56-7.42L57.56-7.42 57.56-0.32Q57.56 3.28 53.96 3.28L53.96 3.28 46.94 3.28 46.94 0.94 52.09 0.94Q53.6 0.94 53.6-0.58L53.6-0.58 53.6-3.85Q51.16-2.09 46.35-0.31 41.54 1.48 37.66 2.09L37.66 2.09 37.66-0.25Q40.07-0.86 43.2-2.11 46.33-3.35 49.18-4.95 52.02-6.55 53.5-8.21L53.5-8.21Q53.46-8.5 53.32-9.32L53.32-9.32Q51.34-7.6 46.94-5.9 42.55-4.21 39.02-3.56L39.02-3.56 39.02-5.9Q42.48-6.95 46.22-8.8 49.97-10.66 52.09-12.74L52.09-12.74Q51.95-13.1 51.7-13.46L51.7-13.46Q49.1-11.92 46.01-10.87 42.91-9.83 39.02-8.82L39.02-8.82 39.02-11.16Q40.79-11.48 43.16-12.42 45.54-13.36 47.65-14.62 49.75-15.88 50.8-17.17L50.8-17.17 43.09-17.17 43.09-19.51 65.02-19.51 65.02-17.71Q65.02-17.5 64.85-17.33 64.69-17.17 64.48-17.17L64.48-17.17 55.94-17.17Q55.3-16.27 54.47-15.48L54.47-15.48Q56.27-13.57 57.06-10.8L57.06-10.8Q59.26-11.99 61.13-13.39 63-14.8 63.58-16.06L63.58-16.06 68.11-16.06Q66.92-13.43 61.52-10.51L61.52-10.51ZM94.54-24.91L106.42-24.91 106.42-23.11Q106.42-22.9 106.25-22.73 106.09-22.57 105.88-22.57L105.88-22.57 80.78-22.57 80.78-15.12Q80.78-9.36 80.01-5.62 79.24-1.87 77.71 0.31 76.18 2.48 73.73 3.67L73.73 3.67 73.73 1.33Q75.64-0.36 76.23-4.45 76.82-8.53 76.82-15.19L76.82-15.19 76.82-24.91 90.94-24.91Q89.6-26.96 87.8-28.94L87.8-28.94 92.12-28.94Q93.24-27.5 94.54-24.91L94.54-24.91ZM95.04-10.62L95.04-0.54 106.27-0.54 106.27 1.26Q106.27 1.48 106.11 1.64 105.95 1.8 105.73 1.8L105.73 1.8 79.38 1.8 79.38-0.54 91.08-0.54 91.08-10.62 82.19-10.62 82.19-12.96 91.08-12.96 91.08-20.95 95.04-20.95 95.04-12.96 104.22-12.96 104.22-11.16Q104.22-10.94 104.06-10.78 103.9-10.62 103.68-10.62L103.68-10.62 95.04-10.62ZM120.92-2.95L120.92-23.94 128.92-23.94 128.92-28.98 132.88-28.98 132.88-23.94 141.01-23.94 141.01-6.37Q141.01-4.54 140.09-3.74 139.18-2.95 137.23-2.95L137.23-2.95 120.92-2.95ZM119.23-20.45L116.28-20.45Q115.92-21.13 114.17-23.47 112.43-25.81 110.88-27.54L110.88-27.54 115.56-27.54Q116.42-26.39 117.23-24.79 118.04-23.18 118.91-21.17L118.91-21.17 119.23-20.45ZM124.88-21.6L124.88-15.12 128.92-15.12 128.92-21.6 124.88-21.6ZM137.05-21.6L132.88-21.6 132.88-15.12 137.05-15.12 137.05-21.6ZM123.48 0.5L142.31 0.5 141.59 2.84 122.18 2.84Q119.99 2.84 118.35 1.91 116.71 0.97 115.99-0.4L115.99-0.4Q115.2 1.37 113.27 2.39 111.35 3.42 109.66 3.64L109.66 3.64 109.66 1.3Q111.31 0.72 112.68-0.76 114.05-2.23 114.05-4.28L114.05-4.28 114.05-14.11 109.66-14.11 109.66-16.45 118.01-16.45 118.01-3.85Q118.08-1.37 119.38-0.43 120.67 0.5 123.48 0.5L123.48 0.5ZM128.92-12.78L124.88-12.78 124.88-5.29 128.92-5.29 128.92-12.78ZM135.79-5.29Q137.05-5.29 137.05-6.55L137.05-6.55 137.05-12.78 132.88-12.78 132.88-5.29 135.79-5.29ZM160.92-15.41Q160.92-15.19 160.76-15.03 160.6-14.87 160.38-14.87L160.38-14.87 146.02-14.87 146.02-17.21 151.49-17.21 151.49-19.04 147.2-19.04 147.2-21.38 151.49-21.38 151.49-23.36 146.34-23.36 146.34-25.7 151.49-25.7 151.49-28.98 155.45-28.98 155.45-25.7 160.63-25.7 160.63-23.9Q160.63-23.69 160.47-23.53 160.31-23.36 160.09-23.36L160.09-23.36 155.45-23.36 155.45-21.38 159.77-21.38 159.77-19.58Q159.77-19.37 159.61-19.21 159.44-19.04 159.23-19.04L159.23-19.04 155.45-19.04 155.45-17.21 160.92-17.21 160.92-15.41ZM177.26-13.43L178.49-13.43 178.49-11.63Q178.49-11.41 178.33-11.25 178.16-11.09 177.95-11.09L177.95-11.09 177.26-11.09 177.26-7.81Q177.26-4.03 173.48-4.03L173.48-4.03 170.53-4.03 170.53-0.29Q170.53 3.49 166.75 3.49L166.75 3.49 162.22 3.49 162.22 1.15 165.31 1.15Q166.57 1.15 166.57-0.11L166.57-0.11 166.57-4.03 161.1-4.03 161.1-6.37 166.57-6.37 166.57-11.09 160.2-11.09 160.2-13.43 166.57-13.43 166.57-17.53 161.86-17.53 161.86-19.01Q160.74-18.4 160.56-18.32L160.56-18.32 160.56-20.66Q162.11-22.1 162.94-23.35 163.76-24.59 164.16-25.79 164.56-27 164.99-28.98L164.99-28.98 169.31-28.98Q168.91-27.29 168.37-26.14L168.37-26.14 175.79-26.14 175.79-23.8Q173.41-21.56 170.89-19.87L170.89-19.87 177.26-19.87 177.26-13.43ZM167.11-23.8Q165.49-21.42 163.22-19.87L163.22-19.87 167.44-19.87Q168.77-20.99 171-23.8L171-23.8 167.11-23.8ZM170.53-17.53L170.53-13.43 173.3-13.43 173.3-17.53 170.53-17.53ZM159.62-13.61L159.62-0.32Q159.62 3.46 155.84 3.46L155.84 3.46 152.82 3.46 152.82 1.12 154.19 1.12Q154.84 1.12 155.25 0.79 155.66 0.47 155.66-0.14L155.66-0.14 155.66-2.27 151.42-2.27 151.42 3.1Q151.42 3.31 151.25 3.47 151.09 3.64 150.88 3.64L150.88 3.64 147.46 3.64 147.46-13.61 159.62-13.61ZM155.66-11.27L151.42-11.27 151.42-9.11 155.66-9.11 155.66-11.27ZM173.3-7.63L173.3-11.09 170.53-11.09 170.53-6.37 172.04-6.37Q173.3-6.37 173.3-7.63L173.3-7.63ZM151.42-4.61L155.66-4.61 155.66-6.77 151.42-6.77 151.42-4.61Z" transform="translate(-1.6600000858306885, 28.979999542236328)"></path></g> <!----> <!----> <!----> <!----> <!----> <!----> <!----></g></g> <g data-gra="path-slogan" fill-rule="" class="tp-slogan iconsvg-slogansvg" fill="#333" transform="translate(5,38.650001525878906)"><rect x="0" height="1" y="3.9750003814697266" width="16.0291748046875"></rect> <rect height="1" y="3.9750003814697266" width="16.0291748046875" x="150.8008270263672"></rect> <g transform="translate(19.0291748046875,0)"><g transform="scale(1)"><path d="M7.17-6.09L7.17-6.09L6.09-6.09Q6-7.73 3.94-7.83L3.94-7.83Q2.02-7.78 2.02-6.33L2.02-6.33Q2.02-5.39 3.05-5.25L3.05-5.25L5.48-4.69Q7.41-4.22 7.41-2.34L7.41-2.34Q7.36 0.05 4.03 0.14L4.03 0.14Q2.20 0.14 1.45-0.61L1.45-0.61Q0.52-1.31 0.56-2.77L0.56-2.77L1.69-2.77Q1.73-0.80 4.03-0.75L4.03-0.75Q6.28-0.80 6.33-2.20L6.33-2.20Q6.52-3.38 4.45-3.75L4.45-3.75L2.67-4.13Q0.84-4.64 0.84-6.19L0.84-6.19Q0.98-8.72 3.84-8.81L3.84-8.81Q7.08-8.81 7.17-6.09ZM10.03-5.06L14.53-5.06L14.53-8.58L15.70-8.58L15.70 0L14.53 0L14.53-3.98L10.03-3.98L10.03 0L8.86 0L8.86-8.58L10.03-8.58L10.03-5.06ZM17.67-8.58L18.84-8.58L18.84 0L17.67 0L17.67-8.58ZM20.11-1.92L20.11-2.77L21.19-2.77L21.19-2.16Q21.19-0.75 22.50-0.75L22.50-0.75Q23.86-0.75 23.86-2.25L23.86-2.25L23.86-8.58L25.03-8.58L25.03-2.30Q24.98 0.09 22.55 0.14L22.55 0.14Q20.25 0.09 20.11-1.92L20.11-1.92ZM27-8.58L28.17-8.58L28.17 0L27 0L27-8.58ZM35.81 0L34.97-2.48L31.50-2.48L30.61 0L29.44 0L32.67-8.58L33.98-8.58L37.08 0L35.81 0ZM33.23-7.31L31.88-3.52L34.55-3.52L33.28-7.31L33.23-7.31ZM38.95-1.03L44.25-1.03L44.25 0L37.50 0L37.50-0.94L42.75-7.59L37.88-7.59L37.88-8.58L44.25-8.58L44.25-7.59L38.95-1.03ZM46.55-5.06L51.05-5.06L51.05-8.58L52.22-8.58L52.22 0L51.05 0L51.05-3.98L46.55-3.98L46.55 0L45.38 0L45.38-8.58L46.55-8.58L46.55-5.06ZM59.67-3.19L59.67-8.58L60.84-8.58L60.84-3.05Q60.70 0.05 57.33 0.14L57.33 0.14Q54.19 0.05 54.05-2.86L54.05-2.86L54.05-8.58L55.22-8.58L55.22-3.19Q55.27-0.84 57.38-0.80L57.38-0.80Q59.67-0.84 59.67-3.19L59.67-3.19ZM68.30 0L67.45-2.48L63.98-2.48L63.09 0L61.92 0L65.16-8.58L66.47-8.58L69.56 0L68.30 0ZM65.72-7.31L64.36-3.52L67.03-3.52L65.77-7.31L65.72-7.31ZM72-8.58L76.31-1.64L76.31-8.58L77.44-8.58L77.44 0L76.13 0L71.77-6.94L71.72-6.94L71.72 0L70.59 0L70.59-8.58L72-8.58ZM85.64-3.61L83.02-3.61L83.02-4.59L86.77-4.59L86.77 0L86.02 0L85.73-1.08Q84.75 0.09 82.92 0.14L82.92 0.14Q81.19 0.14 80.25-0.75L80.25-0.75Q78.84-2.06 78.89-4.36L78.89-4.36Q79.22-8.63 82.97-8.81L82.97-8.81Q86.16-8.63 86.63-6L86.63-6L85.50-6Q85.03-7.78 82.92-7.83L82.92-7.83Q80.25-7.64 80.11-4.31L80.11-4.31Q80.11-0.75 82.97-0.75L82.97-0.75Q84-0.75 84.75-1.31L84.75-1.31Q85.69-2.06 85.64-3.61L85.64-3.61ZM95.39 0L91.92 0L91.92-8.58L95.44-8.58Q98.91-8.39 99.05-4.41L99.05-4.41Q98.86-0.09 95.39 0L95.39 0ZM95.25-7.64L93.09-7.64L93.09-0.98L95.34-0.98Q97.78-1.13 97.88-4.31L97.88-4.31Q97.83-7.55 95.25-7.64L95.25-7.64ZM100.69-8.58L101.86-8.58L101.86 0L100.69 0L100.69-8.58ZM103.13-1.92L103.13-2.77L104.20-2.77L104.20-2.16Q104.20-0.75 105.52-0.75L105.52-0.75Q106.88-0.75 106.88-2.25L106.88-2.25L106.88-8.58L108.05-8.58L108.05-2.30Q108 0.09 105.56 0.14L105.56 0.14Q103.27 0.09 103.13-1.92L103.13-1.92ZM110.02-8.58L111.19-8.58L111.19 0L110.02 0L110.02-8.58ZM114.56-8.58L118.88-1.64L118.88-8.58L120-8.58L120 0L118.69 0L114.33-6.94L114.28-6.94L114.28 0L113.16 0L113.16-8.58L114.56-8.58ZM128.20-3.61L125.58-3.61L125.58-4.59L129.33-4.59L129.33 0L128.58 0L128.30-1.08Q127.31 0.09 125.48 0.14L125.48 0.14Q123.75 0.14 122.81-0.75L122.81-0.75Q121.41-2.06 121.45-4.36L121.45-4.36Q121.78-8.63 125.53-8.81L125.53-8.81Q128.72-8.63 129.19-6L129.19-6L128.06-6Q127.59-7.78 125.48-7.83L125.48-7.83Q122.81-7.64 122.67-4.31L122.67-4.31Q122.67-0.75 125.53-0.75L125.53-0.75Q126.56-0.75 127.31-1.31L127.31-1.31Q128.25-2.06 128.20-3.61L128.20-3.61Z" transform="translate(-0.5602678571428572, 8.8125)"></path></g></g></g></g></g><defs v-gra="od"></defs></svg>